<svg width="24" height="24" viewBox="0 0 24 24" fill="none" xmlns="http://www.w3.org/2000/svg">
<path d="M20 8V6C20 5.46957 19.7893 4.96086 19.4142 4.58579C19.0391 4.21071 18.5304 4 18 4H5C4.20435 4 3.44129 4.31607 2.87868 4.87868C2.31607 5.44129 2 6.20435 2 7M2 7C2 7.79565 2.31607 8.55871 2.87868 9.12132C3.44129 9.68393 4.20435 10 5 10H20V20H5C4.20435 20 3.44129 19.6839 2.87868 19.1213C2.31607 18.5587 2 17.7956 2 17V7ZM20 13H15V17H20" stroke="#14161A" stroke-width="1.7" stroke-linecap="round" stroke-linejoin="round"/>
</svg>

